<mxfile host="app.diagrams.net" modified="2024-02-14T19:45:17.358Z" agent="Mozilla/5.0 (Windows NT 10.0; Win64; x64) AppleWebKit/537.36 (KHTML, like Gecko) Chrome/121.0.0.0 Safari/537.36" etag="_ptYq3eJt9UCY8aOkQqF" version="23.1.2" type="github" pages="2">
  <diagram name="Page-1" id="OwfiVeOAE6O_KrkkMr-Q">
    <mxGraphModel dx="1034" dy="454" grid="1" gridSize="11" guides="1" tooltips="1" connect="1" arrows="1" fold="1" page="1" pageScale="1" pageWidth="850" pageHeight="1100" math="0" shadow="0">
      <root>
        <mxCell id="0" />
        <mxCell id="1" parent="0" />
        <mxCell id="SMNPBds_AobCi2813BHv-92" value="" style="endArrow=classic;html=1;rounded=0;" parent="1" edge="1">
          <mxGeometry width="50" height="50" relative="1" as="geometry">
            <mxPoint x="639" y="240" as="sourcePoint" />
            <mxPoint x="638" y="142" as="targetPoint" />
          </mxGeometry>
        </mxCell>
        <mxCell id="SMNPBds_AobCi2813BHv-37" value="" style="verticalLabelPosition=bottom;html=1;verticalAlign=top;align=center;strokeColor=none;fillColor=#00BEF2;shape=mxgraph.azure.user;" parent="1" vertex="1">
          <mxGeometry x="8" y="190" width="30" height="20" as="geometry" />
        </mxCell>
        <mxCell id="SMNPBds_AobCi2813BHv-42" value="" style="rounded=0;whiteSpace=wrap;html=1;" parent="1" vertex="1">
          <mxGeometry x="227" y="40" width="60" height="455" as="geometry" />
        </mxCell>
        <mxCell id="SMNPBds_AobCi2813BHv-39" value="" style="verticalLabelPosition=bottom;html=1;verticalAlign=top;align=center;strokeColor=none;fillColor=#00BEF2;shape=mxgraph.azure.website_generic;pointerEvents=1;" parent="1" vertex="1">
          <mxGeometry x="86" y="178.75" width="50" height="42.5" as="geometry" />
        </mxCell>
        <mxCell id="SMNPBds_AobCi2813BHv-41" value="" style="sketch=0;points=[[0,0,0],[0.25,0,0],[0.5,0,0],[0.75,0,0],[1,0,0],[0,1,0],[0.25,1,0],[0.5,1,0],[0.75,1,0],[1,1,0],[0,0.25,0],[0,0.5,0],[0,0.75,0],[1,0.25,0],[1,0.5,0],[1,0.75,0]];outlineConnect=0;fontColor=#232F3E;fillColor=#E7157B;strokeColor=#ffffff;dashed=0;verticalLabelPosition=bottom;verticalAlign=top;align=center;html=1;fontSize=12;fontStyle=0;aspect=fixed;shape=mxgraph.aws4.resourceIcon;resIcon=mxgraph.aws4.api_gateway;" parent="1" vertex="1">
          <mxGeometry x="238" y="256" width="38" height="38" as="geometry" />
        </mxCell>
        <mxCell id="SMNPBds_AobCi2813BHv-43" value="" style="endArrow=classic;html=1;rounded=0;" parent="1" edge="1">
          <mxGeometry width="50" height="50" relative="1" as="geometry">
            <mxPoint x="48" y="207.75" as="sourcePoint" />
            <mxPoint x="78" y="208" as="targetPoint" />
          </mxGeometry>
        </mxCell>
        <mxCell id="SMNPBds_AobCi2813BHv-44" value="" style="endArrow=classic;html=1;rounded=0;" parent="1" edge="1">
          <mxGeometry width="50" height="50" relative="1" as="geometry">
            <mxPoint x="108" y="172" as="sourcePoint" />
            <mxPoint x="220" y="122" as="targetPoint" />
            <Array as="points">
              <mxPoint x="108" y="122" />
            </Array>
          </mxGeometry>
        </mxCell>
        <mxCell id="SMNPBds_AobCi2813BHv-45" value="Booking Search&lt;br&gt;i) Cash&lt;br&gt;II) Redeem&lt;br&gt;iii) Cash+Points" style="text;html=1;strokeColor=none;fillColor=none;align=left;verticalAlign=top;whiteSpace=wrap;rounded=0;fontSize=8;" parent="1" vertex="1">
          <mxGeometry x="150.5" y="171" width="58.5" height="47" as="geometry" />
        </mxCell>
        <mxCell id="SMNPBds_AobCi2813BHv-49" value="" style="endArrow=classic;html=1;rounded=0;entryX=0.5;entryY=1;entryDx=0;entryDy=0;" parent="1" target="SMNPBds_AobCi2813BHv-48" edge="1">
          <mxGeometry width="50" height="50" relative="1" as="geometry">
            <mxPoint x="160" y="122" as="sourcePoint" />
            <mxPoint x="200" y="72" as="targetPoint" />
          </mxGeometry>
        </mxCell>
        <mxCell id="SMNPBds_AobCi2813BHv-48" value="&lt;font style=&quot;font-size: 10px;&quot;&gt;IAM&lt;/font&gt;" style="rounded=0;whiteSpace=wrap;html=1;" parent="1" vertex="1">
          <mxGeometry x="140" y="40" width="40" height="40" as="geometry" />
        </mxCell>
        <mxCell id="SMNPBds_AobCi2813BHv-50" value="" style="endArrow=classic;html=1;rounded=0;" parent="1" edge="1">
          <mxGeometry width="50" height="50" relative="1" as="geometry">
            <mxPoint x="220" y="160" as="sourcePoint" />
            <mxPoint x="140" y="159.75" as="targetPoint" />
          </mxGeometry>
        </mxCell>
        <mxCell id="SMNPBds_AobCi2813BHv-52" value="" style="ellipse;whiteSpace=wrap;html=1;aspect=fixed;" parent="1" vertex="1">
          <mxGeometry x="168" y="151" width="20" height="20" as="geometry" />
        </mxCell>
        <mxCell id="SMNPBds_AobCi2813BHv-53" value="&lt;font style=&quot;font-size: 10px;&quot;&gt;6&lt;/font&gt;" style="text;html=1;strokeColor=none;fillColor=none;align=center;verticalAlign=middle;whiteSpace=wrap;rounded=0;" parent="1" vertex="1">
          <mxGeometry x="163" y="151" width="30" height="20" as="geometry" />
        </mxCell>
        <mxCell id="SMNPBds_AobCi2813BHv-47" value="" style="ellipse;whiteSpace=wrap;html=1;aspect=fixed;" parent="1" vertex="1">
          <mxGeometry x="98" y="127" width="20" height="20" as="geometry" />
        </mxCell>
        <mxCell id="SMNPBds_AobCi2813BHv-46" value="&lt;font style=&quot;font-size: 10px;&quot;&gt;1&lt;/font&gt;" style="text;html=1;strokeColor=none;fillColor=none;align=center;verticalAlign=middle;whiteSpace=wrap;rounded=0;" parent="1" vertex="1">
          <mxGeometry x="93" y="127" width="30" height="20" as="geometry" />
        </mxCell>
        <mxCell id="SMNPBds_AobCi2813BHv-54" value="User logs into SkyPlus/LMS" style="text;html=1;strokeColor=none;fillColor=none;align=left;verticalAlign=top;whiteSpace=wrap;rounded=0;fontSize=8;" parent="1" vertex="1">
          <mxGeometry x="32.5" y="120.5" width="58.5" height="38.5" as="geometry" />
        </mxCell>
        <mxCell id="SMNPBds_AobCi2813BHv-55" value="" style="endArrow=classic;html=1;rounded=0;" parent="1" edge="1">
          <mxGeometry width="50" height="50" relative="1" as="geometry">
            <mxPoint x="132" y="231" as="sourcePoint" />
            <mxPoint x="215" y="252" as="targetPoint" />
            <Array as="points">
              <mxPoint x="132" y="252" />
            </Array>
          </mxGeometry>
        </mxCell>
        <mxCell id="SMNPBds_AobCi2813BHv-56" value="" style="ellipse;whiteSpace=wrap;html=1;aspect=fixed;" parent="1" vertex="1">
          <mxGeometry x="159" y="239" width="20" height="20" as="geometry" />
        </mxCell>
        <mxCell id="SMNPBds_AobCi2813BHv-57" value="&lt;font style=&quot;font-size: 10px;&quot;&gt;7&lt;/font&gt;" style="text;html=1;strokeColor=none;fillColor=none;align=center;verticalAlign=middle;whiteSpace=wrap;rounded=0;" parent="1" vertex="1">
          <mxGeometry x="154" y="239" width="30" height="20" as="geometry" />
        </mxCell>
        <mxCell id="SMNPBds_AobCi2813BHv-58" value="User chooses Cash+Points and provides O&amp;amp;D and date for search" style="text;html=1;strokeColor=none;fillColor=none;align=left;verticalAlign=top;whiteSpace=wrap;rounded=0;fontSize=8;" parent="1" vertex="1">
          <mxGeometry x="132.5" y="253.5" width="58.5" height="38.5" as="geometry" />
        </mxCell>
        <mxCell id="SMNPBds_AobCi2813BHv-59" value="&lt;font style=&quot;font-size: 10px;&quot;&gt;LMS Services&lt;/font&gt;" style="rounded=0;whiteSpace=wrap;html=1;" parent="1" vertex="1">
          <mxGeometry x="396" y="68" width="99" height="68" as="geometry" />
        </mxCell>
        <mxCell id="SMNPBds_AobCi2813BHv-60" value="&lt;font style=&quot;font-size: 10px;&quot;&gt;Skyplus Services&lt;/font&gt;" style="rounded=0;whiteSpace=wrap;html=1;" parent="1" vertex="1">
          <mxGeometry x="396" y="248" width="99" height="72" as="geometry" />
        </mxCell>
        <mxCell id="SMNPBds_AobCi2813BHv-65" value="&lt;font style=&quot;font-size: 10px;&quot;&gt;Offer Engine&lt;/font&gt;" style="rounded=0;whiteSpace=wrap;html=1;" parent="1" vertex="1">
          <mxGeometry x="597" y="248" width="88" height="72" as="geometry" />
        </mxCell>
        <mxCell id="SMNPBds_AobCi2813BHv-72" value="" style="endArrow=classic;html=1;rounded=0;" parent="1" edge="1">
          <mxGeometry width="50" height="50" relative="1" as="geometry">
            <mxPoint x="299" y="115" as="sourcePoint" />
            <mxPoint x="387" y="115" as="targetPoint" />
          </mxGeometry>
        </mxCell>
        <mxCell id="SMNPBds_AobCi2813BHv-70" value="&lt;font style=&quot;font-size: 10px;&quot;&gt;1N API/Services&lt;/font&gt;" style="rounded=0;whiteSpace=wrap;html=1;" parent="1" vertex="1">
          <mxGeometry x="594" y="68" width="121" height="68" as="geometry" />
        </mxCell>
        <mxCell id="SMNPBds_AobCi2813BHv-73" value="" style="ellipse;whiteSpace=wrap;html=1;aspect=fixed;" parent="1" vertex="1">
          <mxGeometry x="329" y="107" width="20" height="20" as="geometry" />
        </mxCell>
        <mxCell id="SMNPBds_AobCi2813BHv-74" value="&lt;font style=&quot;font-size: 10px;&quot;&gt;2&lt;/font&gt;" style="text;html=1;strokeColor=none;fillColor=none;align=center;verticalAlign=middle;whiteSpace=wrap;rounded=0;" parent="1" vertex="1">
          <mxGeometry x="324" y="107" width="30" height="20" as="geometry" />
        </mxCell>
        <mxCell id="SMNPBds_AobCi2813BHv-75" value="getUserFQTV, Points,Tier, past and future travel" style="text;html=1;strokeColor=none;fillColor=none;align=left;verticalAlign=top;whiteSpace=wrap;rounded=0;fontSize=8;" parent="1" vertex="1">
          <mxGeometry x="314.75" y="123" width="58.5" height="53" as="geometry" />
        </mxCell>
        <mxCell id="SMNPBds_AobCi2813BHv-79" value="getForecasted SeatFactor for all the flights for the tracel date and given O&amp;amp;D is called" style="text;html=1;strokeColor=none;fillColor=none;align=left;verticalAlign=top;whiteSpace=wrap;rounded=0;fontSize=8;" parent="1" vertex="1">
          <mxGeometry x="683" y="184" width="52" height="55" as="geometry" />
        </mxCell>
        <mxCell id="SMNPBds_AobCi2813BHv-84" value="" style="endArrow=classic;html=1;rounded=0;" parent="1" edge="1">
          <mxGeometry width="50" height="50" relative="1" as="geometry">
            <mxPoint x="500" y="279" as="sourcePoint" />
            <mxPoint x="588" y="279" as="targetPoint" />
          </mxGeometry>
        </mxCell>
        <mxCell id="SMNPBds_AobCi2813BHv-85" value="" style="ellipse;whiteSpace=wrap;html=1;aspect=fixed;" parent="1" vertex="1">
          <mxGeometry x="530" y="268" width="20" height="20" as="geometry" />
        </mxCell>
        <mxCell id="SMNPBds_AobCi2813BHv-86" value="&lt;span style=&quot;font-size: 10px;&quot;&gt;9&lt;/span&gt;" style="text;html=1;strokeColor=none;fillColor=none;align=center;verticalAlign=middle;whiteSpace=wrap;rounded=0;" parent="1" vertex="1">
          <mxGeometry x="525" y="268" width="30" height="20" as="geometry" />
        </mxCell>
        <mxCell id="SMNPBds_AobCi2813BHv-87" value="getFlights And Fare in cash is called" style="text;html=1;strokeColor=none;fillColor=none;align=left;verticalAlign=top;whiteSpace=wrap;rounded=0;fontSize=8;" parent="1" vertex="1">
          <mxGeometry x="569" y="192.5" width="58.5" height="33" as="geometry" />
        </mxCell>
        <mxCell id="SMNPBds_AobCi2813BHv-88" value="" style="endArrow=classic;html=1;rounded=0;" parent="1" edge="1">
          <mxGeometry width="50" height="50" relative="1" as="geometry">
            <mxPoint x="295" y="278" as="sourcePoint" />
            <mxPoint x="383" y="278" as="targetPoint" />
          </mxGeometry>
        </mxCell>
        <mxCell id="SMNPBds_AobCi2813BHv-89" value="" style="ellipse;whiteSpace=wrap;html=1;aspect=fixed;" parent="1" vertex="1">
          <mxGeometry x="325" y="268" width="20" height="20" as="geometry" />
        </mxCell>
        <mxCell id="SMNPBds_AobCi2813BHv-90" value="&lt;font style=&quot;font-size: 10px;&quot;&gt;8&lt;/font&gt;" style="text;html=1;strokeColor=none;fillColor=none;align=center;verticalAlign=middle;whiteSpace=wrap;rounded=0;" parent="1" vertex="1">
          <mxGeometry x="320" y="268" width="30" height="20" as="geometry" />
        </mxCell>
        <mxCell id="SMNPBds_AobCi2813BHv-91" value="getFlights And Fare and discounted fare for cash+points is called" style="text;html=1;strokeColor=none;fillColor=none;align=left;verticalAlign=top;whiteSpace=wrap;rounded=0;fontSize=8;" parent="1" vertex="1">
          <mxGeometry x="308.75" y="214" width="58.5" height="33" as="geometry" />
        </mxCell>
        <mxCell id="SMNPBds_AobCi2813BHv-98" value="" style="endArrow=classic;html=1;rounded=0;" parent="1" edge="1">
          <mxGeometry width="50" height="50" relative="1" as="geometry">
            <mxPoint x="668" y="240" as="sourcePoint" />
            <mxPoint x="668" y="141" as="targetPoint" />
            <Array as="points">
              <mxPoint x="668" y="196" />
            </Array>
          </mxGeometry>
        </mxCell>
        <mxCell id="SMNPBds_AobCi2813BHv-103" value="" style="endArrow=classic;html=1;rounded=0;" parent="1" edge="1">
          <mxGeometry width="50" height="50" relative="1" as="geometry">
            <mxPoint x="791" y="97" as="sourcePoint" />
            <mxPoint x="719" y="96.5" as="targetPoint" />
          </mxGeometry>
        </mxCell>
        <mxCell id="SMNPBds_AobCi2813BHv-102" value="&lt;font style=&quot;font-size: 10px;&quot;&gt;RM&lt;/font&gt;" style="rounded=0;whiteSpace=wrap;html=1;" parent="1" vertex="1">
          <mxGeometry x="801" y="68" width="35" height="68" as="geometry" />
        </mxCell>
        <mxCell id="SMNPBds_AobCi2813BHv-104" value="RM updates the Fares and forecasted Load Factor for all flights&amp;nbsp;" style="text;html=1;strokeColor=none;fillColor=none;align=left;verticalAlign=top;whiteSpace=wrap;rounded=0;fontSize=8;" parent="1" vertex="1">
          <mxGeometry x="731" y="103" width="58.5" height="33" as="geometry" />
        </mxCell>
        <mxCell id="0PA8DL0PbdsnvtNAlWwM-1" value="" style="endArrow=classic;html=1;rounded=0;" parent="1" edge="1">
          <mxGeometry width="50" height="50" relative="1" as="geometry">
            <mxPoint x="502" y="96" as="sourcePoint" />
            <mxPoint x="590" y="96" as="targetPoint" />
          </mxGeometry>
        </mxCell>
        <mxCell id="0PA8DL0PbdsnvtNAlWwM-2" value="" style="ellipse;whiteSpace=wrap;html=1;aspect=fixed;" parent="1" vertex="1">
          <mxGeometry x="532" y="85" width="20" height="20" as="geometry" />
        </mxCell>
        <mxCell id="0PA8DL0PbdsnvtNAlWwM-3" value="&lt;font style=&quot;font-size: 10px;&quot;&gt;3&lt;/font&gt;" style="text;html=1;strokeColor=none;fillColor=none;align=center;verticalAlign=middle;whiteSpace=wrap;rounded=0;" parent="1" vertex="1">
          <mxGeometry x="527" y="85" width="30" height="20" as="geometry" />
        </mxCell>
        <mxCell id="0PA8DL0PbdsnvtNAlWwM-4" value="Get User&#39;s future bookings&amp;nbsp;" style="text;html=1;strokeColor=none;fillColor=none;align=left;verticalAlign=top;whiteSpace=wrap;rounded=0;fontSize=8;" parent="1" vertex="1">
          <mxGeometry x="512.75" y="103" width="58.5" height="33" as="geometry" />
        </mxCell>
        <mxCell id="0PA8DL0PbdsnvtNAlWwM-5" value="" style="ellipse;whiteSpace=wrap;html=1;aspect=fixed;" parent="1" vertex="1">
          <mxGeometry x="626" y="195" width="20" height="20" as="geometry" />
        </mxCell>
        <mxCell id="0PA8DL0PbdsnvtNAlWwM-6" value="&lt;span style=&quot;font-size: 10px;&quot;&gt;9.1&lt;/span&gt;" style="text;html=1;strokeColor=none;fillColor=none;align=center;verticalAlign=middle;whiteSpace=wrap;rounded=0;" parent="1" vertex="1">
          <mxGeometry x="622" y="195" width="30" height="20" as="geometry" />
        </mxCell>
        <mxCell id="0PA8DL0PbdsnvtNAlWwM-7" value="getFlights And Fare, disc fare for cash+Point" style="text;html=1;strokeColor=none;fillColor=none;align=left;verticalAlign=top;whiteSpace=wrap;rounded=0;fontSize=8;" parent="1" vertex="1">
          <mxGeometry x="513.75" y="283" width="58.5" height="33" as="geometry" />
        </mxCell>
        <mxCell id="0PA8DL0PbdsnvtNAlWwM-8" value="" style="ellipse;whiteSpace=wrap;html=1;aspect=fixed;" parent="1" vertex="1">
          <mxGeometry x="658" y="195" width="20" height="20" as="geometry" />
        </mxCell>
        <mxCell id="0PA8DL0PbdsnvtNAlWwM-9" value="&lt;span style=&quot;font-size: 10px;&quot;&gt;9.2&lt;/span&gt;" style="text;html=1;strokeColor=none;fillColor=none;align=center;verticalAlign=middle;whiteSpace=wrap;rounded=0;" parent="1" vertex="1">
          <mxGeometry x="653" y="195" width="30" height="20" as="geometry" />
        </mxCell>
        <mxCell id="0PA8DL0PbdsnvtNAlWwM-11" value="" style="endArrow=classic;html=1;rounded=0;" parent="1" edge="1">
          <mxGeometry width="50" height="50" relative="1" as="geometry">
            <mxPoint x="704" y="141" as="sourcePoint" />
            <mxPoint x="693" y="273" as="targetPoint" />
            <Array as="points">
              <mxPoint x="704" y="163" />
              <mxPoint x="748" y="163" />
              <mxPoint x="748" y="273" />
            </Array>
          </mxGeometry>
        </mxCell>
        <mxCell id="0PA8DL0PbdsnvtNAlWwM-13" value="" style="endArrow=classic;html=1;rounded=0;" parent="1" edge="1">
          <mxGeometry width="50" height="50" relative="1" as="geometry">
            <mxPoint x="605" y="141" as="sourcePoint" />
            <mxPoint x="583" y="251" as="targetPoint" />
            <Array as="points">
              <mxPoint x="605" y="168" />
              <mxPoint x="517" y="168" />
              <mxPoint x="517" y="207" />
              <mxPoint x="517" y="251" />
            </Array>
          </mxGeometry>
        </mxCell>
        <mxCell id="0PA8DL0PbdsnvtNAlWwM-16" value="" style="ellipse;whiteSpace=wrap;html=1;aspect=fixed;" parent="1" vertex="1">
          <mxGeometry x="507" y="197" width="20" height="20" as="geometry" />
        </mxCell>
        <mxCell id="0PA8DL0PbdsnvtNAlWwM-17" value="&lt;font style=&quot;font-size: 10px;&quot;&gt;10.1&lt;/font&gt;" style="text;html=1;strokeColor=none;fillColor=none;align=center;verticalAlign=middle;whiteSpace=wrap;rounded=0;" parent="1" vertex="1">
          <mxGeometry x="502" y="197" width="30" height="20" as="geometry" />
        </mxCell>
        <mxCell id="0PA8DL0PbdsnvtNAlWwM-20" value="Flights &amp;amp; Fare are returned" style="text;html=1;strokeColor=none;fillColor=none;align=left;verticalAlign=top;whiteSpace=wrap;rounded=0;fontSize=8;" parent="1" vertex="1">
          <mxGeometry x="443" y="188.5" width="58.5" height="33" as="geometry" />
        </mxCell>
        <mxCell id="0PA8DL0PbdsnvtNAlWwM-21" value="&lt;font style=&quot;font-size: 10px;&quot;&gt;10.2&lt;/font&gt;" style="ellipse;whiteSpace=wrap;html=1;aspect=fixed;" parent="1" vertex="1">
          <mxGeometry x="739" y="207" width="20" height="20" as="geometry" />
        </mxCell>
        <mxCell id="0PA8DL0PbdsnvtNAlWwM-23" value="Required Seat Fcator is returned" style="text;html=1;strokeColor=none;fillColor=none;align=left;verticalAlign=top;whiteSpace=wrap;rounded=0;fontSize=8;" parent="1" vertex="1">
          <mxGeometry x="760" y="190" width="52" height="55" as="geometry" />
        </mxCell>
        <mxCell id="0PA8DL0PbdsnvtNAlWwM-24" value="" style="endArrow=classic;html=1;rounded=0;" parent="1" edge="1">
          <mxGeometry width="50" height="50" relative="1" as="geometry">
            <mxPoint x="693" y="295" as="sourcePoint" />
            <mxPoint x="693" y="328" as="targetPoint" />
            <Array as="points">
              <mxPoint x="748" y="295" />
              <mxPoint x="748" y="341" />
              <mxPoint x="715" y="341" />
              <mxPoint x="693" y="341" />
            </Array>
          </mxGeometry>
        </mxCell>
        <mxCell id="0PA8DL0PbdsnvtNAlWwM-26" value="" style="ellipse;whiteSpace=wrap;html=1;aspect=fixed;" parent="1" vertex="1">
          <mxGeometry x="738" y="303" width="20" height="20" as="geometry" />
        </mxCell>
        <mxCell id="0PA8DL0PbdsnvtNAlWwM-27" value="&lt;font style=&quot;font-size: 10px;&quot;&gt;11&lt;/font&gt;" style="text;html=1;strokeColor=none;fillColor=none;align=center;verticalAlign=middle;whiteSpace=wrap;rounded=0;" parent="1" vertex="1">
          <mxGeometry x="733" y="303" width="30" height="20" as="geometry" />
        </mxCell>
        <mxCell id="0PA8DL0PbdsnvtNAlWwM-28" value="" style="endArrow=classic;html=1;rounded=0;" parent="1" edge="1">
          <mxGeometry width="50" height="50" relative="1" as="geometry">
            <mxPoint x="616" y="53" as="sourcePoint" />
            <mxPoint x="440" y="53" as="targetPoint" />
            <Array as="points">
              <mxPoint x="616" y="31" />
              <mxPoint x="528" y="31" />
              <mxPoint x="440" y="31" />
            </Array>
          </mxGeometry>
        </mxCell>
        <mxCell id="0PA8DL0PbdsnvtNAlWwM-29" value="" style="ellipse;whiteSpace=wrap;html=1;aspect=fixed;" parent="1" vertex="1">
          <mxGeometry x="518" y="22" width="20" height="20" as="geometry" />
        </mxCell>
        <mxCell id="0PA8DL0PbdsnvtNAlWwM-30" value="&lt;font style=&quot;font-size: 10px;&quot;&gt;4&lt;/font&gt;" style="text;html=1;strokeColor=none;fillColor=none;align=center;verticalAlign=middle;whiteSpace=wrap;rounded=0;" parent="1" vertex="1">
          <mxGeometry x="513" y="22" width="30" height="20" as="geometry" />
        </mxCell>
        <mxCell id="0PA8DL0PbdsnvtNAlWwM-31" value="User&#39;s future bookings are returned" style="text;html=1;strokeColor=none;fillColor=none;align=left;verticalAlign=top;whiteSpace=wrap;rounded=0;fontSize=8;" parent="1" vertex="1">
          <mxGeometry x="501.75" y="37" width="58.5" height="33" as="geometry" />
        </mxCell>
        <mxCell id="0PA8DL0PbdsnvtNAlWwM-32" value="Engine refers to static table of Discount based on forecasted&amp;nbsp; seat factor and no of days of advance booking" style="text;html=1;strokeColor=none;fillColor=none;align=left;verticalAlign=top;whiteSpace=wrap;rounded=0;fontSize=8;" parent="1" vertex="1">
          <mxGeometry x="765" y="300" width="52" height="94" as="geometry" />
        </mxCell>
        <mxCell id="0PA8DL0PbdsnvtNAlWwM-33" value="Engine calculates the discounted price" style="text;html=1;strokeColor=none;fillColor=none;align=left;verticalAlign=top;whiteSpace=wrap;rounded=0;fontSize=8;" parent="1" vertex="1">
          <mxGeometry x="706" y="350" width="52" height="94" as="geometry" />
        </mxCell>
        <mxCell id="0PA8DL0PbdsnvtNAlWwM-34" value="" style="endArrow=classic;html=1;rounded=0;" parent="1" edge="1">
          <mxGeometry width="50" height="50" relative="1" as="geometry">
            <mxPoint x="605" y="328" as="sourcePoint" />
            <mxPoint x="450" y="328" as="targetPoint" />
            <Array as="points">
              <mxPoint x="605" y="352" />
              <mxPoint x="528" y="352" />
              <mxPoint x="451" y="352" />
            </Array>
          </mxGeometry>
        </mxCell>
        <mxCell id="0PA8DL0PbdsnvtNAlWwM-35" value="" style="ellipse;whiteSpace=wrap;html=1;aspect=fixed;" parent="1" vertex="1">
          <mxGeometry x="518" y="343" width="20" height="20" as="geometry" />
        </mxCell>
        <mxCell id="0PA8DL0PbdsnvtNAlWwM-36" value="&lt;font style=&quot;font-size: 10px;&quot;&gt;12&lt;/font&gt;" style="text;html=1;strokeColor=none;fillColor=none;align=center;verticalAlign=middle;whiteSpace=wrap;rounded=0;" parent="1" vertex="1">
          <mxGeometry x="513" y="343" width="30" height="20" as="geometry" />
        </mxCell>
        <mxCell id="0PA8DL0PbdsnvtNAlWwM-37" value="The flights and fare and discounted fare are returned." style="text;html=1;strokeColor=none;fillColor=none;align=left;verticalAlign=top;whiteSpace=wrap;rounded=0;fontSize=8;" parent="1" vertex="1">
          <mxGeometry x="478.38" y="359" width="105.25" height="32" as="geometry" />
        </mxCell>
        <mxCell id="0PA8DL0PbdsnvtNAlWwM-38" value="" style="endArrow=classic;html=1;rounded=0;" parent="1" edge="1">
          <mxGeometry width="50" height="50" relative="1" as="geometry">
            <mxPoint x="385" y="306" as="sourcePoint" />
            <mxPoint x="297" y="306" as="targetPoint" />
            <Array as="points">
              <mxPoint x="352" y="306" />
              <mxPoint x="319" y="306" />
            </Array>
          </mxGeometry>
        </mxCell>
        <mxCell id="0PA8DL0PbdsnvtNAlWwM-39" value="" style="ellipse;whiteSpace=wrap;html=1;aspect=fixed;" parent="1" vertex="1">
          <mxGeometry x="325" y="296" width="20" height="20" as="geometry" />
        </mxCell>
        <mxCell id="0PA8DL0PbdsnvtNAlWwM-40" value="&lt;font style=&quot;font-size: 10px;&quot;&gt;13&lt;/font&gt;" style="text;html=1;strokeColor=none;fillColor=none;align=center;verticalAlign=middle;whiteSpace=wrap;rounded=0;" parent="1" vertex="1">
          <mxGeometry x="320" y="296" width="30" height="20" as="geometry" />
        </mxCell>
        <mxCell id="0PA8DL0PbdsnvtNAlWwM-42" value="" style="endArrow=classic;html=1;rounded=0;" parent="1" edge="1">
          <mxGeometry width="50" height="50" relative="1" as="geometry">
            <mxPoint x="204" y="322" as="sourcePoint" />
            <mxPoint x="121" y="262" as="targetPoint" />
            <Array as="points">
              <mxPoint x="171" y="322" />
              <mxPoint x="121" y="322" />
            </Array>
          </mxGeometry>
        </mxCell>
        <mxCell id="0PA8DL0PbdsnvtNAlWwM-43" value="" style="ellipse;whiteSpace=wrap;html=1;aspect=fixed;" parent="1" vertex="1">
          <mxGeometry x="144" y="312" width="20" height="20" as="geometry" />
        </mxCell>
        <mxCell id="0PA8DL0PbdsnvtNAlWwM-44" value="&lt;font style=&quot;font-size: 10px;&quot;&gt;14&lt;/font&gt;" style="text;html=1;strokeColor=none;fillColor=none;align=center;verticalAlign=middle;whiteSpace=wrap;rounded=0;" parent="1" vertex="1">
          <mxGeometry x="139" y="312" width="30" height="20" as="geometry" />
        </mxCell>
        <mxCell id="b6XpkM-lyrF8tY9y0PFV-2" value="" style="endArrow=classic;html=1;rounded=0;" parent="1" edge="1">
          <mxGeometry width="50" height="50" relative="1" as="geometry">
            <mxPoint x="418" y="55" as="sourcePoint" />
            <mxPoint x="297" y="44" as="targetPoint" />
            <Array as="points">
              <mxPoint x="418" y="44" />
            </Array>
          </mxGeometry>
        </mxCell>
        <mxCell id="b6XpkM-lyrF8tY9y0PFV-3" value="User&#39;s FQTV, Points,Tier, past travel and bookings are returned" style="text;html=1;strokeColor=none;fillColor=none;align=left;verticalAlign=top;whiteSpace=wrap;rounded=0;fontSize=8;" parent="1" vertex="1">
          <mxGeometry x="318" y="47" width="58.5" height="52" as="geometry" />
        </mxCell>
        <mxCell id="b6XpkM-lyrF8tY9y0PFV-6" value="" style="ellipse;whiteSpace=wrap;html=1;aspect=fixed;" parent="1" vertex="1">
          <mxGeometry x="340" y="33" width="20" height="20" as="geometry" />
        </mxCell>
        <mxCell id="b6XpkM-lyrF8tY9y0PFV-7" value="&lt;font style=&quot;font-size: 10px;&quot;&gt;5&lt;/font&gt;" style="text;html=1;strokeColor=none;fillColor=none;align=center;verticalAlign=middle;whiteSpace=wrap;rounded=0;" parent="1" vertex="1">
          <mxGeometry x="335" y="33" width="30" height="20" as="geometry" />
        </mxCell>
        <mxCell id="59oDwtAQfjxM6hvadUJi-1" value="Assumptions:&lt;br&gt;1. Only the flights beyond a price point will qualify for Cash+Points.&lt;br&gt;2. The Cash+Points option will be available through Redeem flow as well.&lt;br&gt;3. The cash component on the Slider will increment by 10% value step&amp;nbsp; &amp;nbsp;" style="text;html=1;strokeColor=none;fillColor=none;align=left;verticalAlign=top;whiteSpace=wrap;rounded=0;fontSize=8;" parent="1" vertex="1">
          <mxGeometry x="91" y="539" width="275.25" height="117" as="geometry" />
        </mxCell>
        <mxCell id="mPE1qaVlTOJG_pVsWpJ8-3" value="The flights and fare and discounted fare are returned" style="text;html=1;strokeColor=none;fillColor=none;align=left;verticalAlign=top;whiteSpace=wrap;rounded=0;fontSize=8;" parent="1" vertex="1">
          <mxGeometry x="309.75" y="313" width="58.5" height="33" as="geometry" />
        </mxCell>
        <mxCell id="mPE1qaVlTOJG_pVsWpJ8-4" value="The flights and fare and discounted fare are returned" style="text;html=1;strokeColor=none;fillColor=none;align=left;verticalAlign=top;whiteSpace=wrap;rounded=0;fontSize=8;" parent="1" vertex="1">
          <mxGeometry x="118.75" y="326" width="58.5" height="33" as="geometry" />
        </mxCell>
        <mxCell id="mPE1qaVlTOJG_pVsWpJ8-6" value="" style="endArrow=classic;html=1;rounded=0;" parent="1" edge="1">
          <mxGeometry width="50" height="50" relative="1" as="geometry">
            <mxPoint x="104" y="231" as="sourcePoint" />
            <mxPoint x="209" y="396" as="targetPoint" />
            <Array as="points">
              <mxPoint x="104" y="397" />
              <mxPoint x="154" y="397" />
            </Array>
          </mxGeometry>
        </mxCell>
        <mxCell id="mPE1qaVlTOJG_pVsWpJ8-7" value="User choses&amp;nbsp; cash and points for one of the flight and moves the slider to pay more cash" style="text;html=1;strokeColor=none;fillColor=none;align=left;verticalAlign=top;whiteSpace=wrap;rounded=0;fontSize=8;" parent="1" vertex="1">
          <mxGeometry x="111.75" y="403" width="86.25" height="57" as="geometry" />
        </mxCell>
        <mxCell id="mPE1qaVlTOJG_pVsWpJ8-8" value="" style="ellipse;whiteSpace=wrap;html=1;aspect=fixed;" parent="1" vertex="1">
          <mxGeometry x="124" y="388" width="20" height="20" as="geometry" />
        </mxCell>
        <mxCell id="mPE1qaVlTOJG_pVsWpJ8-9" value="&lt;font style=&quot;font-size: 10px;&quot;&gt;15&lt;/font&gt;" style="text;html=1;strokeColor=none;fillColor=none;align=center;verticalAlign=middle;whiteSpace=wrap;rounded=0;" parent="1" vertex="1">
          <mxGeometry x="119" y="388" width="30" height="20" as="geometry" />
        </mxCell>
        <mxCell id="mPE1qaVlTOJG_pVsWpJ8-10" value="" style="endArrow=classic;html=1;rounded=0;" parent="1" edge="1">
          <mxGeometry width="50" height="50" relative="1" as="geometry">
            <mxPoint x="209" y="495" as="sourcePoint" />
            <mxPoint x="88" y="242" as="targetPoint" />
            <Array as="points">
              <mxPoint x="143" y="495" />
              <mxPoint x="88" y="495" />
            </Array>
          </mxGeometry>
        </mxCell>
        <mxCell id="mPE1qaVlTOJG_pVsWpJ8-11" value="" style="endArrow=classic;html=1;rounded=0;" parent="1" edge="1">
          <mxGeometry width="50" height="50" relative="1" as="geometry">
            <mxPoint x="297" y="396" as="sourcePoint" />
            <mxPoint x="396" y="330" as="targetPoint" />
            <Array as="points">
              <mxPoint x="341" y="396" />
              <mxPoint x="396" y="396" />
            </Array>
          </mxGeometry>
        </mxCell>
        <mxCell id="mPE1qaVlTOJG_pVsWpJ8-12" value="" style="ellipse;whiteSpace=wrap;html=1;aspect=fixed;" parent="1" vertex="1">
          <mxGeometry x="331" y="387" width="20" height="20" as="geometry" />
        </mxCell>
        <mxCell id="mPE1qaVlTOJG_pVsWpJ8-13" value="&lt;font style=&quot;font-size: 10px;&quot;&gt;16&lt;/font&gt;" style="text;html=1;strokeColor=none;fillColor=none;align=center;verticalAlign=middle;whiteSpace=wrap;rounded=0;" parent="1" vertex="1">
          <mxGeometry x="326" y="387" width="30" height="20" as="geometry" />
        </mxCell>
        <mxCell id="mPE1qaVlTOJG_pVsWpJ8-14" value="get Updated fare value in cash+points" style="text;html=1;strokeColor=none;fillColor=none;align=left;verticalAlign=top;whiteSpace=wrap;rounded=0;fontSize=8;" parent="1" vertex="1">
          <mxGeometry x="319.75" y="403" width="58.5" height="38" as="geometry" />
        </mxCell>
        <mxCell id="mPE1qaVlTOJG_pVsWpJ8-15" value="" style="endArrow=classic;html=1;rounded=0;" parent="1" edge="1">
          <mxGeometry width="50" height="50" relative="1" as="geometry">
            <mxPoint x="435" y="329" as="sourcePoint" />
            <mxPoint x="638" y="330" as="targetPoint" />
            <Array as="points">
              <mxPoint x="435" y="396" />
              <mxPoint x="539" y="396" />
              <mxPoint x="616" y="396" />
              <mxPoint x="638" y="396" />
            </Array>
          </mxGeometry>
        </mxCell>
        <mxCell id="mPE1qaVlTOJG_pVsWpJ8-16" value="get Updated fare value of cash+points and applicable discount rule info" style="text;html=1;strokeColor=none;fillColor=none;align=left;verticalAlign=top;whiteSpace=wrap;rounded=0;fontSize=8;" parent="1" vertex="1">
          <mxGeometry x="484" y="393" width="143" height="25" as="geometry" />
        </mxCell>
        <mxCell id="mPE1qaVlTOJG_pVsWpJ8-17" value="" style="endArrow=classic;html=1;rounded=0;" parent="1" edge="1">
          <mxGeometry width="50" height="50" relative="1" as="geometry">
            <mxPoint x="649" y="330" as="sourcePoint" />
            <mxPoint x="418" y="330" as="targetPoint" />
            <Array as="points">
              <mxPoint x="649" y="429" />
              <mxPoint x="550" y="429" />
              <mxPoint x="418" y="429" />
            </Array>
          </mxGeometry>
        </mxCell>
        <mxCell id="mPE1qaVlTOJG_pVsWpJ8-18" value="Updated fare value of cash+points and applicable discount rule info is returned" style="text;html=1;strokeColor=none;fillColor=none;align=left;verticalAlign=top;whiteSpace=wrap;rounded=0;fontSize=8;" parent="1" vertex="1">
          <mxGeometry x="461" y="438" width="143" height="25" as="geometry" />
        </mxCell>
        <mxCell id="mPE1qaVlTOJG_pVsWpJ8-19" value="" style="ellipse;whiteSpace=wrap;html=1;aspect=fixed;" parent="1" vertex="1">
          <mxGeometry x="505" y="418" width="20" height="20" as="geometry" />
        </mxCell>
        <mxCell id="mPE1qaVlTOJG_pVsWpJ8-20" value="&lt;font style=&quot;font-size: 10px;&quot;&gt;17&lt;/font&gt;" style="text;html=1;strokeColor=none;fillColor=none;align=center;verticalAlign=middle;whiteSpace=wrap;rounded=0;" parent="1" vertex="1">
          <mxGeometry x="500" y="418" width="30" height="20" as="geometry" />
        </mxCell>
        <mxCell id="Gt4goCBHLAexRyP_5FmJ-1" value="" style="endArrow=classic;html=1;rounded=0;" parent="1" edge="1">
          <mxGeometry width="50" height="50" relative="1" as="geometry">
            <mxPoint x="407" y="341" as="sourcePoint" />
            <mxPoint x="297" y="462" as="targetPoint" />
            <Array as="points">
              <mxPoint x="407" y="462" />
            </Array>
          </mxGeometry>
        </mxCell>
        <mxCell id="Gt4goCBHLAexRyP_5FmJ-2" value="Updated fare value of cash+points and applicable discount rule info is returned" style="text;html=1;strokeColor=none;fillColor=none;align=left;verticalAlign=top;whiteSpace=wrap;rounded=0;fontSize=8;" parent="1" vertex="1">
          <mxGeometry x="295" y="459" width="143" height="25" as="geometry" />
        </mxCell>
        <mxCell id="Gt4goCBHLAexRyP_5FmJ-3" value="" style="ellipse;whiteSpace=wrap;html=1;aspect=fixed;" parent="1" vertex="1">
          <mxGeometry x="342" y="446" width="20" height="20" as="geometry" />
        </mxCell>
        <mxCell id="Gt4goCBHLAexRyP_5FmJ-4" value="&lt;font style=&quot;font-size: 10px;&quot;&gt;18&lt;/font&gt;" style="text;html=1;strokeColor=none;fillColor=none;align=center;verticalAlign=middle;whiteSpace=wrap;rounded=0;" parent="1" vertex="1">
          <mxGeometry x="337" y="446" width="30" height="20" as="geometry" />
        </mxCell>
      </root>
    </mxGraphModel>
  </diagram>
  <diagram id="tfOoxKZsEUQnKDMy-ZZV" name="Page-2">
    <mxGraphModel dx="1034" dy="454" grid="1" gridSize="11" guides="1" tooltips="1" connect="1" arrows="1" fold="1" page="1" pageScale="1" pageWidth="850" pageHeight="1100" math="0" shadow="0">
      <root>
        <mxCell id="0" />
        <mxCell id="1" parent="0" />
        <mxCell id="1cU-pwUtf7i2L51uSTTn-75" value="" style="endArrow=classic;html=1;rounded=0;fillColor=#e3c800;strokeColor=#B09500;" parent="1" edge="1">
          <mxGeometry width="50" height="50" relative="1" as="geometry">
            <mxPoint x="204" y="343" as="sourcePoint" />
            <mxPoint x="88" y="253" as="targetPoint" />
            <Array as="points">
              <mxPoint x="171" y="343" />
              <mxPoint x="88" y="343" />
            </Array>
          </mxGeometry>
        </mxCell>
        <mxCell id="1cU-pwUtf7i2L51uSTTn-76" value="" style="ellipse;whiteSpace=wrap;html=1;aspect=fixed;fillColor=#e3c800;fontColor=#000000;strokeColor=#B09500;" parent="1" vertex="1">
          <mxGeometry x="144" y="334" width="20" height="20" as="geometry" />
        </mxCell>
        <mxCell id="1cU-pwUtf7i2L51uSTTn-77" value="&lt;font style=&quot;font-size: 10px;&quot;&gt;14&lt;/font&gt;" style="text;html=1;strokeColor=none;fillColor=none;align=center;verticalAlign=middle;whiteSpace=wrap;rounded=0;" parent="1" vertex="1">
          <mxGeometry x="139" y="334" width="30" height="20" as="geometry" />
        </mxCell>
        <mxCell id="1cU-pwUtf7i2L51uSTTn-1" value="" style="endArrow=classic;html=1;rounded=0;" parent="1" edge="1">
          <mxGeometry width="50" height="50" relative="1" as="geometry">
            <mxPoint x="641" y="242" as="sourcePoint" />
            <mxPoint x="640" y="144" as="targetPoint" />
          </mxGeometry>
        </mxCell>
        <mxCell id="1cU-pwUtf7i2L51uSTTn-2" value="" style="verticalLabelPosition=bottom;html=1;verticalAlign=top;align=center;strokeColor=none;fillColor=#00BEF2;shape=mxgraph.azure.user;" parent="1" vertex="1">
          <mxGeometry x="8" y="190" width="30" height="20" as="geometry" />
        </mxCell>
        <mxCell id="1cU-pwUtf7i2L51uSTTn-3" value="" style="rounded=0;whiteSpace=wrap;html=1;" parent="1" vertex="1">
          <mxGeometry x="227" y="40" width="60" height="477" as="geometry" />
        </mxCell>
        <mxCell id="1cU-pwUtf7i2L51uSTTn-4" value="" style="verticalLabelPosition=bottom;html=1;verticalAlign=top;align=center;strokeColor=none;fillColor=#00BEF2;shape=mxgraph.azure.website_generic;pointerEvents=1;" parent="1" vertex="1">
          <mxGeometry x="86" y="178.75" width="50" height="42.5" as="geometry" />
        </mxCell>
        <mxCell id="1cU-pwUtf7i2L51uSTTn-5" value="" style="sketch=0;points=[[0,0,0],[0.25,0,0],[0.5,0,0],[0.75,0,0],[1,0,0],[0,1,0],[0.25,1,0],[0.5,1,0],[0.75,1,0],[1,1,0],[0,0.25,0],[0,0.5,0],[0,0.75,0],[1,0.25,0],[1,0.5,0],[1,0.75,0]];outlineConnect=0;fontColor=#232F3E;fillColor=#E7157B;strokeColor=#ffffff;dashed=0;verticalLabelPosition=bottom;verticalAlign=top;align=center;html=1;fontSize=12;fontStyle=0;aspect=fixed;shape=mxgraph.aws4.resourceIcon;resIcon=mxgraph.aws4.api_gateway;" parent="1" vertex="1">
          <mxGeometry x="238" y="253.5" width="38" height="38" as="geometry" />
        </mxCell>
        <mxCell id="1cU-pwUtf7i2L51uSTTn-6" value="" style="endArrow=classic;html=1;rounded=0;" parent="1" edge="1">
          <mxGeometry width="50" height="50" relative="1" as="geometry">
            <mxPoint x="48" y="207.75" as="sourcePoint" />
            <mxPoint x="78" y="208" as="targetPoint" />
          </mxGeometry>
        </mxCell>
        <mxCell id="1cU-pwUtf7i2L51uSTTn-7" value="" style="endArrow=classic;html=1;rounded=0;" parent="1" edge="1">
          <mxGeometry width="50" height="50" relative="1" as="geometry">
            <mxPoint x="108" y="172" as="sourcePoint" />
            <mxPoint x="220" y="122" as="targetPoint" />
            <Array as="points">
              <mxPoint x="108" y="122" />
            </Array>
          </mxGeometry>
        </mxCell>
        <mxCell id="1cU-pwUtf7i2L51uSTTn-8" value="Booking Search&lt;br&gt;i) Cash&lt;br&gt;II) Redeem&lt;br&gt;iii) Cash+Points" style="text;html=1;strokeColor=none;fillColor=none;align=left;verticalAlign=top;whiteSpace=wrap;rounded=0;fontSize=8;" parent="1" vertex="1">
          <mxGeometry x="150.5" y="171" width="58.5" height="47" as="geometry" />
        </mxCell>
        <mxCell id="1cU-pwUtf7i2L51uSTTn-11" value="" style="endArrow=classic;html=1;rounded=0;" parent="1" edge="1">
          <mxGeometry width="50" height="50" relative="1" as="geometry">
            <mxPoint x="220" y="160" as="sourcePoint" />
            <mxPoint x="140" y="159.75" as="targetPoint" />
          </mxGeometry>
        </mxCell>
        <mxCell id="1cU-pwUtf7i2L51uSTTn-12" value="" style="ellipse;whiteSpace=wrap;html=1;aspect=fixed;" parent="1" vertex="1">
          <mxGeometry x="168" y="151" width="20" height="20" as="geometry" />
        </mxCell>
        <mxCell id="1cU-pwUtf7i2L51uSTTn-13" value="&lt;font style=&quot;font-size: 10px;&quot;&gt;6&lt;/font&gt;" style="text;html=1;strokeColor=none;fillColor=none;align=center;verticalAlign=middle;whiteSpace=wrap;rounded=0;" parent="1" vertex="1">
          <mxGeometry x="163" y="151" width="30" height="20" as="geometry" />
        </mxCell>
        <mxCell id="1cU-pwUtf7i2L51uSTTn-14" value="" style="ellipse;whiteSpace=wrap;html=1;aspect=fixed;" parent="1" vertex="1">
          <mxGeometry x="98" y="127" width="20" height="20" as="geometry" />
        </mxCell>
        <mxCell id="1cU-pwUtf7i2L51uSTTn-15" value="&lt;font style=&quot;font-size: 10px;&quot;&gt;10&lt;/font&gt;" style="text;html=1;strokeColor=none;fillColor=none;align=center;verticalAlign=middle;whiteSpace=wrap;rounded=0;" parent="1" vertex="1">
          <mxGeometry x="93" y="127" width="30" height="20" as="geometry" />
        </mxCell>
        <mxCell id="1cU-pwUtf7i2L51uSTTn-16" value="User enters the&amp;nbsp;&lt;br&gt;Travelers details and moves ahead to book" style="text;html=1;strokeColor=none;fillColor=none;align=left;verticalAlign=top;whiteSpace=wrap;rounded=0;fontSize=8;" parent="1" vertex="1">
          <mxGeometry x="77" y="426" width="88" height="37" as="geometry" />
        </mxCell>
        <mxCell id="1cU-pwUtf7i2L51uSTTn-17" value="" style="endArrow=classic;html=1;rounded=0;" parent="1" edge="1">
          <mxGeometry width="50" height="50" relative="1" as="geometry">
            <mxPoint x="107" y="219" as="sourcePoint" />
            <mxPoint x="215" y="252" as="targetPoint" />
            <Array as="points">
              <mxPoint x="107" y="252" />
            </Array>
          </mxGeometry>
        </mxCell>
        <mxCell id="1cU-pwUtf7i2L51uSTTn-18" value="" style="ellipse;whiteSpace=wrap;html=1;aspect=fixed;" parent="1" vertex="1">
          <mxGeometry x="97" y="226" width="20" height="20" as="geometry" />
        </mxCell>
        <mxCell id="1cU-pwUtf7i2L51uSTTn-19" value="&lt;font style=&quot;font-size: 10px;&quot;&gt;1&lt;/font&gt;" style="text;html=1;strokeColor=none;fillColor=none;align=center;verticalAlign=middle;whiteSpace=wrap;rounded=0;" parent="1" vertex="1">
          <mxGeometry x="92" y="226" width="30" height="20" as="geometry" />
        </mxCell>
        <mxCell id="1cU-pwUtf7i2L51uSTTn-20" value="User chooses&amp;nbsp; book a specific flight with specific points on Serach result&amp;nbsp; page" style="text;html=1;strokeColor=none;fillColor=none;align=left;verticalAlign=top;whiteSpace=wrap;rounded=0;fontSize=8;" parent="1" vertex="1">
          <mxGeometry x="132.5" y="253.5" width="58.5" height="65.5" as="geometry" />
        </mxCell>
        <mxCell id="1cU-pwUtf7i2L51uSTTn-21" value="&lt;font style=&quot;font-size: 10px;&quot;&gt;LMS Services&lt;/font&gt;" style="rounded=0;whiteSpace=wrap;html=1;" parent="1" vertex="1">
          <mxGeometry x="355" y="68" width="99" height="68" as="geometry" />
        </mxCell>
        <mxCell id="1cU-pwUtf7i2L51uSTTn-22" value="&lt;font style=&quot;font-size: 10px;&quot;&gt;Skyplus Services&lt;/font&gt;" style="rounded=0;whiteSpace=wrap;html=1;" parent="1" vertex="1">
          <mxGeometry x="396" y="248" width="99" height="72" as="geometry" />
        </mxCell>
        <mxCell id="1cU-pwUtf7i2L51uSTTn-23" value="&lt;font style=&quot;font-size: 10px;&quot;&gt;Offer Engine&lt;/font&gt;" style="rounded=0;whiteSpace=wrap;html=1;" parent="1" vertex="1">
          <mxGeometry x="600" y="248" width="88" height="72" as="geometry" />
        </mxCell>
        <mxCell id="1cU-pwUtf7i2L51uSTTn-24" value="" style="endArrow=classic;html=1;rounded=0;" parent="1" edge="1">
          <mxGeometry width="50" height="50" relative="1" as="geometry">
            <mxPoint x="396" y="242" as="sourcePoint" />
            <mxPoint x="352" y="110" as="targetPoint" />
            <Array as="points">
              <mxPoint x="396" y="220" />
              <mxPoint x="330" y="220" />
              <mxPoint x="330" y="110" />
            </Array>
          </mxGeometry>
        </mxCell>
        <mxCell id="1cU-pwUtf7i2L51uSTTn-25" value="&lt;font style=&quot;font-size: 10px;&quot;&gt;1N API/Services&lt;/font&gt;" style="rounded=0;whiteSpace=wrap;html=1;" parent="1" vertex="1">
          <mxGeometry x="594" y="68" width="121" height="68" as="geometry" />
        </mxCell>
        <mxCell id="1cU-pwUtf7i2L51uSTTn-26" value="14" style="ellipse;whiteSpace=wrap;html=1;aspect=fixed;" parent="1" vertex="1">
          <mxGeometry x="321" y="158" width="20" height="20" as="geometry" />
        </mxCell>
        <mxCell id="1cU-pwUtf7i2L51uSTTn-30" value="" style="endArrow=classic;html=1;rounded=0;" parent="1" edge="1">
          <mxGeometry width="50" height="50" relative="1" as="geometry">
            <mxPoint x="499" y="279" as="sourcePoint" />
            <mxPoint x="595" y="279" as="targetPoint" />
            <Array as="points">
              <mxPoint x="595" y="279" />
            </Array>
          </mxGeometry>
        </mxCell>
        <mxCell id="1cU-pwUtf7i2L51uSTTn-31" value="" style="ellipse;whiteSpace=wrap;html=1;aspect=fixed;" parent="1" vertex="1">
          <mxGeometry x="530" y="268" width="20" height="20" as="geometry" />
        </mxCell>
        <mxCell id="1cU-pwUtf7i2L51uSTTn-32" value="&lt;span style=&quot;font-size: 10px;&quot;&gt;3&lt;/span&gt;" style="text;html=1;strokeColor=none;fillColor=none;align=center;verticalAlign=middle;whiteSpace=wrap;rounded=0;" parent="1" vertex="1">
          <mxGeometry x="525" y="268" width="30" height="20" as="geometry" />
        </mxCell>
        <mxCell id="1cU-pwUtf7i2L51uSTTn-33" value="getFlights And Fare Summary&amp;nbsp; with discount code applied in cash is called" style="text;html=1;strokeColor=none;fillColor=none;align=left;verticalAlign=top;whiteSpace=wrap;rounded=0;fontSize=8;" parent="1" vertex="1">
          <mxGeometry x="572.25" y="167.5" width="58.5" height="58.5" as="geometry" />
        </mxCell>
        <mxCell id="1cU-pwUtf7i2L51uSTTn-34" value="" style="endArrow=classic;html=1;rounded=0;" parent="1" edge="1">
          <mxGeometry width="50" height="50" relative="1" as="geometry">
            <mxPoint x="295" y="278" as="sourcePoint" />
            <mxPoint x="383" y="278" as="targetPoint" />
          </mxGeometry>
        </mxCell>
        <mxCell id="1cU-pwUtf7i2L51uSTTn-35" value="" style="ellipse;whiteSpace=wrap;html=1;aspect=fixed;" parent="1" vertex="1">
          <mxGeometry x="325" y="268" width="20" height="20" as="geometry" />
        </mxCell>
        <mxCell id="1cU-pwUtf7i2L51uSTTn-36" value="&lt;font style=&quot;font-size: 10px;&quot;&gt;2&lt;/font&gt;" style="text;html=1;strokeColor=none;fillColor=none;align=center;verticalAlign=middle;whiteSpace=wrap;rounded=0;" parent="1" vertex="1">
          <mxGeometry x="320" y="268" width="30" height="20" as="geometry" />
        </mxCell>
        <mxCell id="1cU-pwUtf7i2L51uSTTn-37" value="bookFlightsWithPoints is called" style="text;html=1;strokeColor=none;fillColor=none;align=left;verticalAlign=top;whiteSpace=wrap;rounded=0;fontSize=8;" parent="1" vertex="1">
          <mxGeometry x="295.38" y="240" width="87.25" height="33" as="geometry" />
        </mxCell>
        <mxCell id="1cU-pwUtf7i2L51uSTTn-38" value="" style="endArrow=classic;html=1;rounded=0;" parent="1" edge="1">
          <mxGeometry width="50" height="50" relative="1" as="geometry">
            <mxPoint x="675" y="242" as="sourcePoint" />
            <mxPoint x="675" y="143" as="targetPoint" />
            <Array as="points">
              <mxPoint x="675" y="198" />
            </Array>
          </mxGeometry>
        </mxCell>
        <mxCell id="1cU-pwUtf7i2L51uSTTn-39" value="" style="endArrow=classic;html=1;rounded=0;" parent="1" edge="1">
          <mxGeometry width="50" height="50" relative="1" as="geometry">
            <mxPoint x="791" y="97" as="sourcePoint" />
            <mxPoint x="719" y="96.5" as="targetPoint" />
          </mxGeometry>
        </mxCell>
        <mxCell id="1cU-pwUtf7i2L51uSTTn-40" value="&lt;font style=&quot;font-size: 10px;&quot;&gt;RM&lt;/font&gt;" style="rounded=0;whiteSpace=wrap;html=1;" parent="1" vertex="1">
          <mxGeometry x="801" y="68" width="35" height="68" as="geometry" />
        </mxCell>
        <mxCell id="1cU-pwUtf7i2L51uSTTn-41" value="RM updates the Fares and Load Factor for all flights&amp;nbsp;" style="text;html=1;strokeColor=none;fillColor=none;align=left;verticalAlign=top;whiteSpace=wrap;rounded=0;fontSize=8;" parent="1" vertex="1">
          <mxGeometry x="731" y="103" width="58.5" height="33" as="geometry" />
        </mxCell>
        <mxCell id="1cU-pwUtf7i2L51uSTTn-46" value="" style="ellipse;whiteSpace=wrap;html=1;aspect=fixed;" parent="1" vertex="1">
          <mxGeometry x="631" y="197" width="20" height="20" as="geometry" />
        </mxCell>
        <mxCell id="1cU-pwUtf7i2L51uSTTn-47" value="&lt;span style=&quot;font-size: 10px;&quot;&gt;4.1&lt;/span&gt;" style="text;html=1;strokeColor=none;fillColor=none;align=center;verticalAlign=middle;whiteSpace=wrap;rounded=0;" parent="1" vertex="1">
          <mxGeometry x="627" y="197" width="30" height="20" as="geometry" />
        </mxCell>
        <mxCell id="1cU-pwUtf7i2L51uSTTn-49" value="" style="ellipse;whiteSpace=wrap;html=1;aspect=fixed;" parent="1" vertex="1">
          <mxGeometry x="665" y="197" width="20" height="20" as="geometry" />
        </mxCell>
        <mxCell id="1cU-pwUtf7i2L51uSTTn-50" value="&lt;span style=&quot;font-size: 10px;&quot;&gt;4.2&lt;/span&gt;" style="text;html=1;strokeColor=none;fillColor=none;align=center;verticalAlign=middle;whiteSpace=wrap;rounded=0;" parent="1" vertex="1">
          <mxGeometry x="660" y="197" width="30" height="20" as="geometry" />
        </mxCell>
        <mxCell id="1cU-pwUtf7i2L51uSTTn-51" value="" style="endArrow=classic;html=1;rounded=0;" parent="1" edge="1">
          <mxGeometry width="50" height="50" relative="1" as="geometry">
            <mxPoint x="705" y="144" as="sourcePoint" />
            <mxPoint x="694" y="276" as="targetPoint" />
            <Array as="points">
              <mxPoint x="705" y="166" />
              <mxPoint x="781" y="166" />
              <mxPoint x="781" y="220" />
              <mxPoint x="781" y="276" />
            </Array>
          </mxGeometry>
        </mxCell>
        <mxCell id="1cU-pwUtf7i2L51uSTTn-52" value="" style="endArrow=classic;html=1;rounded=0;" parent="1" edge="1">
          <mxGeometry width="50" height="50" relative="1" as="geometry">
            <mxPoint x="583" y="132" as="sourcePoint" />
            <mxPoint x="582" y="253" as="targetPoint" />
            <Array as="points">
              <mxPoint x="539" y="132" />
              <mxPoint x="539" y="168" />
              <mxPoint x="539" y="207" />
              <mxPoint x="539" y="253" />
            </Array>
          </mxGeometry>
        </mxCell>
        <mxCell id="1cU-pwUtf7i2L51uSTTn-53" value="" style="ellipse;whiteSpace=wrap;html=1;aspect=fixed;" parent="1" vertex="1">
          <mxGeometry x="530" y="194" width="20" height="20" as="geometry" />
        </mxCell>
        <mxCell id="1cU-pwUtf7i2L51uSTTn-54" value="&lt;font style=&quot;font-size: 10px;&quot;&gt;5.1&lt;/font&gt;" style="text;html=1;strokeColor=none;fillColor=none;align=center;verticalAlign=middle;whiteSpace=wrap;rounded=0;" parent="1" vertex="1">
          <mxGeometry x="526" y="194" width="30" height="20" as="geometry" />
        </mxCell>
        <mxCell id="1cU-pwUtf7i2L51uSTTn-55" value="Flights &amp;amp; Fare summary are are returned" style="text;html=1;strokeColor=none;fillColor=none;align=left;verticalAlign=top;whiteSpace=wrap;rounded=0;fontSize=8;" parent="1" vertex="1">
          <mxGeometry x="501.5" y="133.5" width="43.5" height="48" as="geometry" />
        </mxCell>
        <mxCell id="1cU-pwUtf7i2L51uSTTn-56" value="&lt;font style=&quot;font-size: 10px;&quot;&gt;5.2&lt;/font&gt;" style="ellipse;whiteSpace=wrap;html=1;aspect=fixed;" parent="1" vertex="1">
          <mxGeometry x="771" y="210" width="20" height="20" as="geometry" />
        </mxCell>
        <mxCell id="1cU-pwUtf7i2L51uSTTn-57" value="Baggae &lt;br&gt;Summary is returned&amp;nbsp;" style="text;html=1;strokeColor=none;fillColor=none;align=left;verticalAlign=top;whiteSpace=wrap;rounded=0;fontSize=8;" parent="1" vertex="1">
          <mxGeometry x="797.5" y="190" width="42" height="48" as="geometry" />
        </mxCell>
        <mxCell id="1cU-pwUtf7i2L51uSTTn-58" value="" style="endArrow=classic;html=1;rounded=0;" parent="1" edge="1">
          <mxGeometry width="50" height="50" relative="1" as="geometry">
            <mxPoint x="698" y="293" as="sourcePoint" />
            <mxPoint x="643" y="326" as="targetPoint" />
            <Array as="points">
              <mxPoint x="753" y="293" />
              <mxPoint x="753" y="370" />
              <mxPoint x="643" y="370" />
            </Array>
          </mxGeometry>
        </mxCell>
        <mxCell id="1cU-pwUtf7i2L51uSTTn-59" value="" style="ellipse;whiteSpace=wrap;html=1;aspect=fixed;" parent="1" vertex="1">
          <mxGeometry x="743" y="319" width="20" height="20" as="geometry" />
        </mxCell>
        <mxCell id="1cU-pwUtf7i2L51uSTTn-60" value="&lt;font style=&quot;font-size: 10px;&quot;&gt;6&lt;/font&gt;" style="text;html=1;strokeColor=none;fillColor=none;align=center;verticalAlign=middle;whiteSpace=wrap;rounded=0;" parent="1" vertex="1">
          <mxGeometry x="738" y="319" width="30" height="20" as="geometry" />
        </mxCell>
        <mxCell id="1cU-pwUtf7i2L51uSTTn-65" value="Points information is added back to the Flight - Fare - Baggae Summary" style="text;html=1;strokeColor=none;fillColor=none;align=left;verticalAlign=top;whiteSpace=wrap;rounded=0;fontSize=8;" parent="1" vertex="1">
          <mxGeometry x="770" y="298" width="52" height="94" as="geometry" />
        </mxCell>
        <mxCell id="1cU-pwUtf7i2L51uSTTn-67" value="" style="endArrow=classic;html=1;rounded=0;" parent="1" edge="1">
          <mxGeometry width="50" height="50" relative="1" as="geometry">
            <mxPoint x="611" y="326" as="sourcePoint" />
            <mxPoint x="456" y="326" as="targetPoint" />
            <Array as="points">
              <mxPoint x="611" y="370" />
              <mxPoint x="456" y="370" />
            </Array>
          </mxGeometry>
        </mxCell>
        <mxCell id="1cU-pwUtf7i2L51uSTTn-68" value="" style="ellipse;whiteSpace=wrap;html=1;aspect=fixed;" parent="1" vertex="1">
          <mxGeometry x="525" y="358" width="20" height="20" as="geometry" />
        </mxCell>
        <mxCell id="1cU-pwUtf7i2L51uSTTn-69" value="&lt;font style=&quot;font-size: 10px;&quot;&gt;7&lt;/font&gt;" style="text;html=1;strokeColor=none;fillColor=none;align=center;verticalAlign=middle;whiteSpace=wrap;rounded=0;" parent="1" vertex="1">
          <mxGeometry x="520" y="358" width="30" height="20" as="geometry" />
        </mxCell>
        <mxCell id="1cU-pwUtf7i2L51uSTTn-70" value="The Flight - Fare in points - taxes&amp;nbsp; Baggae-Summ\ary, is returned" style="text;html=1;strokeColor=none;fillColor=none;align=left;verticalAlign=top;whiteSpace=wrap;rounded=0;fontSize=8;" parent="1" vertex="1">
          <mxGeometry x="473" y="381" width="91.25" height="37" as="geometry" />
        </mxCell>
        <mxCell id="1cU-pwUtf7i2L51uSTTn-71" value="" style="endArrow=classic;html=1;rounded=0;" parent="1" edge="1">
          <mxGeometry width="50" height="50" relative="1" as="geometry">
            <mxPoint x="385" y="306" as="sourcePoint" />
            <mxPoint x="297" y="306" as="targetPoint" />
            <Array as="points">
              <mxPoint x="352" y="306" />
              <mxPoint x="319" y="306" />
            </Array>
          </mxGeometry>
        </mxCell>
        <mxCell id="1cU-pwUtf7i2L51uSTTn-72" value="" style="ellipse;whiteSpace=wrap;html=1;aspect=fixed;" parent="1" vertex="1">
          <mxGeometry x="325" y="296" width="20" height="20" as="geometry" />
        </mxCell>
        <mxCell id="1cU-pwUtf7i2L51uSTTn-73" value="&lt;font style=&quot;font-size: 10px;&quot;&gt;8&lt;/font&gt;" style="text;html=1;strokeColor=none;fillColor=none;align=center;verticalAlign=middle;whiteSpace=wrap;rounded=0;" parent="1" vertex="1">
          <mxGeometry x="320" y="296" width="30" height="20" as="geometry" />
        </mxCell>
        <mxCell id="1cU-pwUtf7i2L51uSTTn-78" value="The flights, fare in points and applied discount code are returned" style="text;html=1;strokeColor=none;fillColor=none;align=left;verticalAlign=top;whiteSpace=wrap;rounded=0;fontSize=8;" parent="1" vertex="1">
          <mxGeometry x="129.75" y="354" width="58.5" height="66" as="geometry" />
        </mxCell>
        <mxCell id="n1DfoYbx4mulFaSZ6C5m-1" value="getFlight-Fare-Baggage Summary for Points offer is called" style="text;html=1;strokeColor=none;fillColor=none;align=left;verticalAlign=top;whiteSpace=wrap;rounded=0;fontSize=8;" parent="1" vertex="1">
          <mxGeometry x="502" y="285" width="98" height="35" as="geometry" />
        </mxCell>
        <mxCell id="qdUVejy2ZnBiHDNP_orJ-2" value="getBaggage Summary is called" style="text;html=1;strokeColor=none;fillColor=none;align=left;verticalAlign=top;whiteSpace=wrap;rounded=0;fontSize=8;" parent="1" vertex="1">
          <mxGeometry x="684.5" y="181.5" width="58.5" height="58.5" as="geometry" />
        </mxCell>
        <mxCell id="w2qPJAZkOG86GRG8gPvC-2" value="The Flight - Fare in points - taxes&amp;nbsp; Baggae-Summ\ary, is returned" style="text;html=1;strokeColor=none;fillColor=none;align=left;verticalAlign=top;whiteSpace=wrap;rounded=0;fontSize=8;" parent="1" vertex="1">
          <mxGeometry x="309.75" y="320" width="58.5" height="65" as="geometry" />
        </mxCell>
        <mxCell id="w2qPJAZkOG86GRG8gPvC-3" value="" style="endArrow=classic;html=1;rounded=0;endSize=6;startSize=6;targetPerimeterSpacing=0;" parent="1" edge="1">
          <mxGeometry width="50" height="50" relative="1" as="geometry">
            <mxPoint x="73" y="226" as="sourcePoint" />
            <mxPoint x="220" y="429" as="targetPoint" />
            <Array as="points">
              <mxPoint x="73" y="429" />
              <mxPoint x="154" y="429" />
            </Array>
          </mxGeometry>
        </mxCell>
        <mxCell id="1Eb28vUV1LNGwE_ufC8G-2" value="" style="ellipse;whiteSpace=wrap;html=1;aspect=fixed;" parent="1" vertex="1">
          <mxGeometry x="167" y="418" width="20" height="20" as="geometry" />
        </mxCell>
        <mxCell id="1Eb28vUV1LNGwE_ufC8G-3" value="&lt;font style=&quot;font-size: 10px;&quot;&gt;9&lt;/font&gt;" style="text;html=1;strokeColor=none;fillColor=none;align=center;verticalAlign=middle;whiteSpace=wrap;rounded=0;" parent="1" vertex="1">
          <mxGeometry x="162" y="418" width="30" height="20" as="geometry" />
        </mxCell>
        <mxCell id="1Eb28vUV1LNGwE_ufC8G-4" value="" style="endArrow=classic;html=1;rounded=0;" parent="1" edge="1">
          <mxGeometry width="50" height="50" relative="1" as="geometry">
            <mxPoint x="429" y="240" as="sourcePoint" />
            <mxPoint x="429" y="143" as="targetPoint" />
          </mxGeometry>
        </mxCell>
        <mxCell id="1Eb28vUV1LNGwE_ufC8G-6" value="" style="ellipse;whiteSpace=wrap;html=1;aspect=fixed;" parent="1" vertex="1">
          <mxGeometry x="419" y="178" width="20" height="20" as="geometry" />
        </mxCell>
        <mxCell id="1Eb28vUV1LNGwE_ufC8G-7" value="&lt;font style=&quot;font-size: 10px;&quot;&gt;10&lt;/font&gt;" style="text;html=1;strokeColor=none;fillColor=none;align=center;verticalAlign=middle;whiteSpace=wrap;rounded=0;" parent="1" vertex="1">
          <mxGeometry x="414" y="178" width="30" height="20" as="geometry" />
        </mxCell>
        <mxCell id="1Eb28vUV1LNGwE_ufC8G-8" value="Validate TravelerBe LMS user or a nominee&amp;nbsp;" style="text;html=1;strokeColor=none;fillColor=none;align=left;verticalAlign=top;whiteSpace=wrap;rounded=0;fontSize=8;" parent="1" vertex="1">
          <mxGeometry x="444" y="151" width="47" height="46" as="geometry" />
        </mxCell>
        <mxCell id="1Eb28vUV1LNGwE_ufC8G-9" value="" style="endArrow=classic;html=1;rounded=0;endSize=6;startSize=6;targetPerimeterSpacing=0;" parent="1" edge="1">
          <mxGeometry width="50" height="50" relative="1" as="geometry">
            <mxPoint x="55" y="231" as="sourcePoint" />
            <mxPoint x="220" y="484" as="targetPoint" />
            <Array as="points">
              <mxPoint x="55" y="407" />
              <mxPoint x="55" y="484" />
            </Array>
          </mxGeometry>
        </mxCell>
        <mxCell id="1Eb28vUV1LNGwE_ufC8G-10" value="" style="ellipse;whiteSpace=wrap;html=1;aspect=fixed;" parent="1" vertex="1">
          <mxGeometry x="114" y="473" width="20" height="20" as="geometry" />
        </mxCell>
        <mxCell id="1Eb28vUV1LNGwE_ufC8G-11" value="&lt;font style=&quot;font-size: 10px;&quot;&gt;11&lt;/font&gt;" style="text;html=1;strokeColor=none;fillColor=none;align=center;verticalAlign=middle;whiteSpace=wrap;rounded=0;" parent="1" vertex="1">
          <mxGeometry x="109" y="473" width="30" height="20" as="geometry" />
        </mxCell>
        <mxCell id="1Eb28vUV1LNGwE_ufC8G-12" value="User submits to pay to redeem" style="text;html=1;strokeColor=none;fillColor=none;align=left;verticalAlign=top;whiteSpace=wrap;rounded=0;fontSize=8;" parent="1" vertex="1">
          <mxGeometry x="134" y="493" width="88" height="40" as="geometry" />
        </mxCell>
        <mxCell id="ySOM_miNmC4cd87v_qhh-2" value="" style="endArrow=classic;html=1;rounded=0;" parent="1" edge="1">
          <mxGeometry width="50" height="50" relative="1" as="geometry">
            <mxPoint x="308" y="415" as="sourcePoint" />
            <mxPoint x="429" y="327" as="targetPoint" />
            <Array as="points">
              <mxPoint x="308" y="415" />
              <mxPoint x="429" y="415" />
            </Array>
          </mxGeometry>
        </mxCell>
        <mxCell id="ySOM_miNmC4cd87v_qhh-3" value="PayFareUsingPoint and Taxes in currency" style="text;html=1;strokeColor=none;fillColor=none;align=left;verticalAlign=top;whiteSpace=wrap;rounded=0;fontSize=8;" parent="1" vertex="1">
          <mxGeometry x="327" y="423" width="88" height="40" as="geometry" />
        </mxCell>
        <mxCell id="ySOM_miNmC4cd87v_qhh-4" value="" style="ellipse;whiteSpace=wrap;html=1;aspect=fixed;" parent="1" vertex="1">
          <mxGeometry x="351" y="403" width="20" height="20" as="geometry" />
        </mxCell>
        <mxCell id="ySOM_miNmC4cd87v_qhh-5" value="&lt;font style=&quot;font-size: 10px;&quot;&gt;13&lt;/font&gt;" style="text;html=1;strokeColor=none;fillColor=none;align=center;verticalAlign=middle;whiteSpace=wrap;rounded=0;" parent="1" vertex="1">
          <mxGeometry x="346" y="403" width="30" height="20" as="geometry" />
        </mxCell>
        <mxCell id="ySOM_miNmC4cd87v_qhh-9" value="PerformOTP &lt;br&gt;validation &lt;br&gt;and Debit &lt;br&gt;loyalty points" style="text;html=1;strokeColor=none;fillColor=none;align=left;verticalAlign=top;whiteSpace=wrap;rounded=0;fontSize=8;" parent="1" vertex="1">
          <mxGeometry x="345" y="141" width="53" height="40" as="geometry" />
        </mxCell>
      </root>
    </mxGraphModel>
  </diagram>
</mxfile>
